<svg width="30" height="30" viewBox="0 0 30 30" fill="none" xmlns="http://www.w3.org/2000/svg">
<mask id="mask0_1_1617" style="mask-type:luminance" maskUnits="userSpaceOnUse" x="0" y="0" width="30" height="30">
<path fill-rule="evenodd" clip-rule="evenodd" d="M14.621 0.749023C6.547 0.749023 0 7.29402 0 15.37C0 22.667 5.347 28.716 12.337 29.813V19.596H8.625V15.37H12.337V12.148C12.337 8.48402 14.52 6.46002 17.86 6.46002C19.459 6.46002 21.133 6.74502 21.133 6.74502V10.343H19.289C17.473 10.343 16.906 11.47 16.906 12.627V15.37H20.961L20.313 19.596H16.906V29.813C23.896 28.716 29.243 22.667 29.243 15.37C29.243 7.29402 22.696 0.749023 14.621 0.749023Z" fill="white"/>
</mask>
<g mask="url(#mask0_1_1617)">
<path fill-rule="evenodd" clip-rule="evenodd" d="M14.621 0.749023C6.547 0.749023 0 7.29402 0 15.37C0 22.667 5.347 28.716 12.337 29.813V19.596H8.625V15.37H12.337V12.148C12.337 8.48402 14.52 6.46002 17.86 6.46002C19.459 6.46002 21.133 6.74502 21.133 6.74502V10.343H19.289C17.473 10.343 16.906 11.47 16.906 12.627V15.37H20.961L20.313 19.596H16.906V29.813C23.896 28.716 29.243 22.667 29.243 15.37C29.243 7.29402 22.696 0.749023 14.621 0.749023Z" fill="url(#paint0_linear_1_1617)"/>
</g>
<path fill-rule="evenodd" clip-rule="evenodd" d="M20.3129 19.5962L20.9609 15.3692H16.9059V12.6272C16.9059 11.4702 17.4729 10.3432 19.2889 10.3432H21.1329V6.74521C21.1329 6.74521 19.4589 6.46021 17.8599 6.46021C14.5199 6.46021 12.3369 8.48421 12.3369 12.1482V15.3692H8.62488V19.5962H12.3369V29.8132C13.0809 29.9302 13.8439 29.9912 14.6219 29.9912C15.3989 29.9912 16.1619 29.9302 16.9059 29.8132V19.5962H20.3129Z" fill="white"/>
<defs>
<linearGradient id="paint0_linear_1_1617" x1="-6.11997" y1="15.3063" x2="14.43" y2="36.1101" gradientUnits="userSpaceOnUse">
<stop stop-color="#4675ED"/>
<stop offset="1" stop-color="#2A1D99"/>
</linearGradient>
</defs>
</svg>
