<svg width="30" height="30" viewBox="0 0 30 30" fill="none" xmlns="http://www.w3.org/2000/svg">
<mask id="mask0_1_1622" style="mask-type:luminance" maskUnits="userSpaceOnUse" x="0" y="-1" width="30" height="31">
<path fill-rule="evenodd" clip-rule="evenodd" d="M14.621 -0.000244141C6.547 -0.000244141 0 6.54676 0 14.6218C0 22.6958 6.547 29.2428 14.621 29.2428C22.696 29.2428 29.243 22.6958 29.243 14.6218C29.243 6.54676 22.696 -0.000244141 14.621 -0.000244141Z" fill="white"/>
</mask>
<g mask="url(#mask0_1_1622)">
<path fill-rule="evenodd" clip-rule="evenodd" d="M14.621 -0.000244141C6.547 -0.000244141 0 6.54676 0 14.6218C0 22.6958 6.547 29.2428 14.621 29.2428C22.696 29.2428 29.243 22.6958 29.243 14.6218C29.243 6.54676 22.696 -0.000244141 14.621 -0.000244141Z" fill="url(#paint0_linear_1_1622)"/>
</g>
<path fill-rule="evenodd" clip-rule="evenodd" d="M19.16 9.09009C18.605 9.09009 18.155 9.54009 18.155 10.0951C18.155 10.6501 18.605 11.1001 19.16 11.1001C19.715 11.1001 20.165 10.6501 20.165 10.0951C20.165 9.54009 19.715 9.09009 19.16 9.09009Z" fill="white"/>
<path fill-rule="evenodd" clip-rule="evenodd" d="M14.6918 17.3054C13.2008 17.3054 11.9878 16.0924 11.9878 14.6014C11.9878 13.1094 13.2008 11.8964 14.6918 11.8964C16.1828 11.8964 17.3958 13.1094 17.3958 14.6014C17.3958 16.0924 16.1828 17.3054 14.6918 17.3054ZM14.6918 10.3794C12.3638 10.3794 10.4698 12.2734 10.4698 14.6014C10.4698 16.9294 12.3638 18.8234 14.6918 18.8234C17.0198 18.8234 18.9138 16.9294 18.9138 14.6014C18.9138 12.2734 17.0198 10.3794 14.6918 10.3794Z" fill="white"/>
<path fill-rule="evenodd" clip-rule="evenodd" d="M11.199 7.64205C9.24899 7.64205 7.66199 9.22805 7.66199 11.1781V18.0231C7.66199 19.9731 9.24899 21.5601 11.199 21.5601H18.043C19.994 21.5601 21.58 19.9731 21.58 18.0231V11.1781C21.58 9.22805 19.994 7.64205 18.043 7.64205H11.199ZM18.043 23.1731H11.199C8.35999 23.1731 6.04999 20.8631 6.04999 18.0231V11.1781C6.04999 8.33905 8.35999 6.02905 11.199 6.02905H18.043C20.883 6.02905 23.193 8.33905 23.193 11.1781V18.0231C23.193 20.8631 20.883 23.1731 18.043 23.1731Z" fill="white"/>
<defs>
<linearGradient id="paint0_linear_1_1622" x1="29.243" y1="-0.000244141" x2="0" y2="-0.000244141" gradientUnits="userSpaceOnUse">
<stop stop-color="#FBE18A"/>
<stop offset="0.320203" stop-color="#F75274"/>
<stop offset="0.592603" stop-color="#D53692"/>
<stop offset="0.802174" stop-color="#8F39CE"/>
<stop offset="1" stop-color="#5B4FE9"/>
</linearGradient>
</defs>
</svg>
