<svg width="30" height="30" viewBox="0 0 30 30" fill="none" xmlns="http://www.w3.org/2000/svg">
<mask id="mask0_1_1634" style="mask-type:luminance" maskUnits="userSpaceOnUse" x="0" y="0" width="30" height="30">
<path fill-rule="evenodd" clip-rule="evenodd" d="M0 15.3791C0 23.4531 6.547 30.0001 14.621 30.0001C22.696 30.0001 29.243 23.4531 29.243 15.3791C29.243 7.30408 22.696 0.75708 14.621 0.75708C6.547 0.75708 0 7.30408 0 15.3791Z" fill="white"/>
</mask>
<g mask="url(#mask0_1_1634)">
<path fill-rule="evenodd" clip-rule="evenodd" d="M0 15.3791C0 23.4531 6.547 30.0001 14.621 30.0001C22.696 30.0001 29.243 23.4531 29.243 15.3791C29.243 7.30408 22.696 0.75708 14.621 0.75708C6.547 0.75708 0 7.30408 0 15.3791Z" fill="url(#paint0_linear_1_1634)"/>
</g>
<path fill-rule="evenodd" clip-rule="evenodd" d="M9.90598 8.13501C10.812 8.13501 11.545 8.87001 11.545 9.77301C11.545 10.678 10.812 11.414 9.90598 11.414C8.99798 11.414 8.26398 10.678 8.26398 9.77301C8.26398 8.87001 8.99798 8.13501 9.90598 8.13501ZM8.48998 21.753H11.322V12.656H8.48998V21.753Z" fill="white"/>
<path fill-rule="evenodd" clip-rule="evenodd" d="M13.0957 12.6554H15.8077V13.8994H15.8447C16.2237 13.1834 17.1457 12.4304 18.5227 12.4304C21.3857 12.4304 21.9137 14.3134 21.9137 16.7634V21.7524H19.0877V17.3294C19.0877 16.2734 19.0667 14.9174 17.6177 14.9174C16.1467 14.9174 15.9217 16.0664 15.9217 17.2524V21.7524H13.0957V12.6554Z" fill="white"/>
<defs>
<linearGradient id="paint0_linear_1_1634" x1="14.6214" y1="-5.29908" x2="-6.05638" y2="15.3787" gradientUnits="userSpaceOnUse">
<stop stop-color="#0079B5"/>
<stop offset="1" stop-color="#0046E4"/>
</linearGradient>
</defs>
</svg>
