<svg width="14" height="16" viewBox="0 0 14 16" fill="none" xmlns="http://www.w3.org/2000/svg">
<path fill-rule="evenodd" clip-rule="evenodd" d="M6.78129 0C8.58885 0 10.2883 0.703906 11.5664 1.98206C12.8445 3.26025 13.5484 4.95962 13.5484 6.76716C13.5484 10.4237 10.0911 13.4651 8.23361 15.0991L8.23354 15.0991L8.23202 15.1005C7.97454 15.327 7.75216 15.5226 7.57491 15.6882C7.35238 15.896 7.06685 15.9999 6.78126 15.9999C6.49572 15.9999 6.21013 15.896 5.98763 15.6882C5.81004 15.5223 5.58713 15.3262 5.32901 15.0991C3.47154 13.4652 0.0140991 10.4238 0.0140991 6.76716C0.0140991 4.95962 0.718005 3.26025 1.99616 1.98206C3.27429 0.703906 4.97372 0 6.78129 0ZM6.9351 15.0033C7.12291 14.8279 7.35069 14.6275 7.61447 14.3954C9.36072 12.8593 12.6112 9.99997 12.6111 6.76719C12.6111 3.55256 9.99585 0.937281 6.78122 0.937281C3.56657 0.937281 0.951287 3.55256 0.951287 6.76719C0.951287 9.99997 4.20176 12.8593 5.94801 14.3954L5.9493 14.3965C6.21253 14.6281 6.43991 14.8281 6.62738 15.0033C6.71369 15.0838 6.84882 15.0838 6.9351 15.0033Z" fill="#B2D235"/>
<path fill-rule="evenodd" clip-rule="evenodd" d="M3.79907 6.51148C3.79907 4.86708 5.13688 3.5293 6.78129 3.5293C8.4257 3.5293 9.76348 4.86708 9.76348 6.51148C9.76348 8.15589 8.4257 9.49367 6.78129 9.49367C5.13688 9.49367 3.79907 8.15589 3.79907 6.51148ZM4.73632 6.51145C4.73632 7.63902 5.6537 8.55639 6.78129 8.55639C7.90889 8.55639 8.82623 7.63902 8.82623 6.51145C8.82623 5.38389 7.90889 4.46652 6.78129 4.46652C5.6537 4.46652 4.73632 5.38389 4.73632 6.51145Z" fill="#B2D235"/>
</svg>
