<svg width="18" height="12" viewBox="0 0 18 12" fill="none" xmlns="http://www.w3.org/2000/svg">
<path opacity="0.49628" fill-rule="evenodd" clip-rule="evenodd" d="M0.853559 0.0183105H16.2178C16.7015 0.0183105 17.0714 0.388175 17.0714 0.87187V6.56234C17.0714 7.04604 16.7015 7.4159 16.2178 7.4159H0.853559C0.369864 7.4159 0 7.04604 0 6.56234V0.87187C0 0.388175 0.369864 0.0183105 0.853559 0.0183105ZM16.2179 6.84685C16.3886 6.84685 16.5024 6.73306 16.5024 6.56234H16.5023V0.87187C16.5023 0.701158 16.3885 0.587361 16.2178 0.587361H0.853559C0.711322 0.587361 0.569051 0.701158 0.569051 0.87187V6.56234C0.569051 6.73306 0.682847 6.84685 0.853559 6.84685H16.2179Z" fill="#222222"/>
<path opacity="0.49628" d="M7.39759 2.57903H9.67379C9.84451 2.57903 9.9583 2.46523 9.9583 2.29452C9.9583 2.12381 9.84451 2.01001 9.67379 2.01001H7.39759C7.22688 2.01001 7.11308 2.12381 7.11308 2.29452C7.11308 2.46523 7.22688 2.57903 7.39759 2.57903Z" fill="#222222"/>
<path opacity="0.49628" d="M15.6488 5.7088H1.42262C1.2519 5.7088 1.13811 5.8226 1.13811 5.99331C1.13811 6.16402 1.2519 6.27782 1.42262 6.27782H15.6488C15.8195 6.27782 15.9333 6.16402 15.9333 5.99331C15.9333 5.8226 15.8195 5.7088 15.6488 5.7088Z" fill="#222222"/>
<path opacity="0.49628" d="M15.6488 4.57068H1.42262C1.2519 4.57068 1.13811 4.68448 1.13811 4.85519C1.13811 5.0259 1.2519 5.1397 1.42262 5.1397H15.6488C15.8195 5.1397 15.9333 5.0259 15.9333 4.85519C15.9333 4.68448 15.8195 4.57068 15.6488 4.57068Z" fill="#222222"/>
<path opacity="0.49628" d="M8.67796 9.43605C8.39345 9.29378 8.25118 9.12306 8.25118 8.98079C8.25118 8.83852 8.42189 8.66781 8.64952 8.4971C8.79179 8.44018 8.82023 8.26947 8.76332 8.12723C8.7064 7.98496 8.53569 7.92808 8.39345 8.01344C7.9382 8.2695 7.68213 8.61093 7.68213 8.98083C7.68213 9.35069 7.9382 9.69215 8.39345 9.97666C8.67796 10.1189 8.82023 10.2896 8.82023 10.4319C8.82023 10.5742 8.64952 10.7449 8.39345 10.8871C8.25118 10.944 8.1943 11.1148 8.27965 11.257C8.33657 11.3424 8.42193 11.3993 8.53572 11.3993C8.59264 11.3993 8.62108 11.3993 8.67799 11.3708C9.13325 11.1148 9.38932 10.7733 9.38932 10.4034C9.38932 10.0335 9.13321 9.66367 8.67796 9.43605Z" fill="#222222"/>
<path opacity="0.49628" d="M5.5482 10.0051C5.26369 9.86281 5.12142 9.69209 5.12142 9.54982C5.12142 9.40755 5.29213 9.23684 5.51976 9.06613C5.66203 9.00921 5.71891 8.8385 5.63355 8.69626C5.57664 8.55399 5.40593 8.49711 5.26369 8.58247C4.80844 8.83854 4.55237 9.17996 4.55237 9.54986C4.55237 9.91972 4.80844 10.2612 5.26369 10.5457C5.5482 10.688 5.69047 10.8587 5.69047 11.0009C5.69047 11.1432 5.51976 11.3139 5.26369 11.4562C5.12142 11.5131 5.06454 11.6838 5.14989 11.8261C5.20681 11.9114 5.29216 11.9683 5.40596 11.9683C5.46288 11.9683 5.49132 11.9683 5.54823 11.9399C6.00349 11.6838 6.25955 11.3424 6.25955 10.9725C6.25955 10.6026 6.00345 10.2327 5.5482 10.0051Z" fill="#222222"/>
<path opacity="0.49628" d="M11.8077 10.0051C11.5232 9.86281 11.3809 9.69209 11.3809 9.54982C11.3809 9.40755 11.5517 9.23684 11.7793 9.06613C11.9216 9.00921 11.95 8.8385 11.8931 8.69626C11.8362 8.55399 11.6654 8.49711 11.5232 8.58247C11.068 8.83854 10.8119 9.17996 10.8119 9.54986C10.8119 9.91972 11.068 10.2612 11.5232 10.5457C11.8077 10.688 11.95 10.8587 11.95 11.0009C11.95 11.1432 11.7793 11.3139 11.5232 11.4562C11.3809 11.5131 11.3241 11.6838 11.4094 11.8261C11.4663 11.9114 11.5517 11.9683 11.6655 11.9683C11.7224 11.9683 11.7508 11.9683 11.8078 11.9399C12.263 11.6838 12.5191 11.3424 12.5191 10.9725C12.5191 10.6026 12.2629 10.2327 11.8077 10.0051Z" fill="#222222"/>
</svg>
