<svg width="16" height="12" viewBox="0 0 16 12" fill="none" xmlns="http://www.w3.org/2000/svg">
<path opacity="0.5" fill-rule="evenodd" clip-rule="evenodd" d="M0.642857 11.2213C0.642857 11.3989 0.498884 11.5427 0.321429 11.5427C0.143973 11.5427 0 11.3989 0 11.2213V0.864153C0 0.686698 0.143973 0.542725 0.321429 0.542725C0.498884 0.542725 0.642857 0.686698 0.642857 0.864153V6.60433H15.3571V5.14987C15.3571 4.97241 15.5011 4.82844 15.6786 4.82844C15.856 4.82844 16 4.97241 16 5.14987V11.2213C16 11.3989 15.856 11.5427 15.6786 11.5427C15.5011 11.5427 15.3571 11.3989 15.3571 11.2213V9.0329H0.642857V11.2213ZM15.3571 8.39005V7.24719H0.642857V8.39005H15.3571Z" fill="#222222"/>
<path opacity="0.5" fill-rule="evenodd" clip-rule="evenodd" d="M1.59644 4.42578C1.59644 3.45926 2.37992 2.67578 3.34644 2.67578C4.31251 2.6769 5.09532 3.45982 5.09644 4.42578C5.09644 5.3923 4.31295 6.17578 3.34644 6.17578C2.37992 6.17578 1.59644 5.3923 1.59644 4.42578ZM2.23929 4.42578C2.23929 5.03728 2.73494 5.53292 3.34644 5.53292C3.9576 5.53225 4.45291 5.03705 4.45358 4.42578C4.45358 3.8144 3.95782 3.31864 3.34644 3.31864C2.73494 3.31864 2.23929 3.8144 2.23929 4.42578Z" fill="#222222"/>
<path opacity="0.5" fill-rule="evenodd" clip-rule="evenodd" d="M14.2016 6.17575H5.98728C5.80982 6.17575 5.66585 6.032 5.66585 5.85432V2.64003C5.66585 2.46258 5.80982 2.3186 5.98728 2.3186H10.9873C12.9392 2.32084 14.521 3.90264 14.523 5.85432C14.523 6.032 14.3792 6.17575 14.2016 6.17575ZM10.9873 2.96146H6.3087V5.53289H13.8623C13.6969 4.06972 12.4599 2.96347 10.9873 2.96146Z" fill="#222222"/>
</svg>
