<svg width="15" height="12" viewBox="0 0 15 12" fill="none" xmlns="http://www.w3.org/2000/svg">
<path opacity="0.500744" d="M14.2892 3.44601C10.664 -1.13119 3.74234 -1.13913 0.110838 3.44601C-0.0650273 3.66803 -0.0275648 3.99062 0.194482 4.16646C0.416529 4.3423 0.739066 4.30486 0.914932 4.08282C4.12993 0.023562 10.2652 0.0173464 13.4851 4.08282C13.6611 4.30503 13.9836 4.34218 14.2056 4.16646C14.4276 3.99057 14.465 3.66803 14.2892 3.44601Z" fill="#222222"/>
<path opacity="0.500744" d="M2.45734 5.30055C2.28141 5.52254 2.31876 5.8451 2.54076 6.021C2.76283 6.19698 3.08534 6.15951 3.26121 5.93758C5.27684 3.39398 9.11939 3.38931 11.1387 5.93758C11.3147 6.15957 11.6372 6.19692 11.8592 6.021C12.0812 5.84508 12.1186 5.52254 11.9426 5.30055C9.51623 2.23858 4.88742 2.23391 2.45734 5.30055Z" fill="#222222"/>
<path opacity="0.500744" d="M4.80253 7.15497C4.62675 7.37707 4.66427 7.69958 4.88637 7.87539C5.10848 8.05117 5.43101 8.01365 5.60679 7.79155C6.42031 6.76369 7.97824 6.76198 8.79313 7.79155C8.96894 8.01365 9.29142 8.0512 9.51355 7.87539C9.73566 7.69958 9.77315 7.37707 9.59739 7.15497C8.37348 5.6086 6.02844 5.60612 4.80253 7.15497Z" fill="#222222"/>
<circle opacity="0.500744" cx="7.20009" cy="10.1726" r="1.2922" stroke="#222222" stroke-width="0.8"/>
</svg>
