<svg width="16" height="16" viewBox="0 0 16 16" fill="none" xmlns="http://www.w3.org/2000/svg">
<g clip-path="url(#clip0_1_311)">
<path d="M14.8142 0.29628H1.18575C0.531844 0.29628 0 0.828124 0 1.48191V10.3704V11.5528C0 12.2079 0.531844 12.7407 1.18575 12.7407H14.8142C15.4682 12.7407 16 12.2079 16 11.5528V10.3704V1.48191C16 0.828124 15.4682 0.29628 14.8142 0.29628ZM15.4074 11.5528C15.4074 11.8811 15.1412 12.1482 14.8142 12.1482H1.18575C0.858781 12.1482 0.592594 11.8811 0.592594 11.5528V10.6667H15.4074V11.5528ZM15.4074 10.0741H0.592594V1.48191C0.592594 1.15494 0.858813 0.888874 1.18575 0.888874H14.8142C15.1412 0.888874 15.4074 1.15494 15.4074 1.48191V10.0741H15.4074Z" fill="black"/>
<path d="M2.87616 1.8646C2.76041 1.74885 2.57291 1.74885 2.45719 1.8646L1.56828 2.75347C1.45253 2.86922 1.45253 3.05672 1.56828 3.17244C1.62616 3.23032 1.70197 3.25925 1.77778 3.25925C1.85359 3.25925 1.92941 3.23032 1.98728 3.17244L2.87616 2.28357C2.99191 2.16782 2.99191 1.98032 2.87616 1.8646Z" fill="black"/>
<path d="M5.10184 1.8646C4.98609 1.74885 4.79859 1.74885 4.68287 1.8646L1.56828 4.97916C1.45253 5.09491 1.45253 5.28241 1.56828 5.39816C1.62616 5.45604 1.70197 5.48497 1.77778 5.48497C1.85359 5.48497 1.92941 5.45604 1.98728 5.39816L5.10187 2.28357C5.21759 2.16782 5.21759 1.98032 5.10184 1.8646Z" fill="black"/>
<path d="M9.18519 15.1111V13.3333H8.59259V15.1111H7.40741V13.3333H6.81481V15.1111H5.33334V15.7037H10.6667V15.1111H9.18519Z" fill="black"/>
</g>
<defs>
<clipPath id="clip0_1_311">
<rect width="16" height="16" fill="white"/>
</clipPath>
</defs>
</svg>
