<svg width="18" height="11" viewBox="0 0 18 11" fill="none" xmlns="http://www.w3.org/2000/svg">
<path fill-rule="evenodd" clip-rule="evenodd" d="M6.43674 4.30705C6.43674 2.89363 7.58659 1.74377 9.00001 1.74377C10.4134 1.74377 11.5633 2.89366 11.5633 4.30705C11.5633 5.72044 10.4134 6.87033 9.00001 6.87033C7.58663 6.87033 6.43674 5.72047 6.43674 4.30705ZM7.57598 4.30709C7.57598 5.0922 8.21469 5.73113 9.00001 5.73113C9.78533 5.73113 10.4241 5.09241 10.4241 4.30709C10.4241 3.52177 9.78533 2.88305 9.00001 2.88305C8.21469 2.88305 7.57598 3.52177 7.57598 4.30709Z" fill="#222222"/>
<path d="M8.99999 5.71216C6.89561 5.71216 5.18353 7.42423 5.18353 9.52862V10.3831C5.18353 10.6977 5.43852 10.9527 5.75317 10.9527C6.06778 10.9527 6.32281 10.6977 6.32281 10.3831V9.52862C6.32281 8.05233 7.52374 6.8514 9.00002 6.8514C10.4763 6.8514 11.6772 8.05255 11.6772 9.52862V10.3831C11.6772 10.6977 11.9322 10.9527 12.2469 10.9527C12.5615 10.9527 12.8165 10.6977 12.8165 10.3831V9.52862C12.8164 7.42423 11.1044 5.71216 8.99999 5.71216Z" fill="#222222"/>
<path fill-rule="evenodd" clip-rule="evenodd" d="M11.6203 2.57927C11.6203 1.16588 12.7701 0.0159912 14.1835 0.0159912C15.597 0.0159912 16.7468 1.16588 16.7468 2.57927C16.7468 3.99266 15.5971 5.14255 14.1835 5.14255C12.7702 5.14255 11.6203 3.99266 11.6203 2.57927ZM12.7595 2.57927C12.7595 3.36459 13.3982 4.00331 14.1835 4.00331C14.9689 4.00331 15.6076 3.36459 15.6076 2.57927C15.6076 1.79395 14.9689 1.15523 14.1835 1.15523C13.3982 1.15523 12.7595 1.79395 12.7595 2.57927Z" fill="#222222"/>
<path d="M14.1835 3.98438C12.438 3.98438 10.9149 5.16749 10.4801 6.8617C10.4018 7.16626 10.5854 7.47669 10.89 7.55495C11.1947 7.63395 11.505 7.44976 11.5832 7.14503C11.8889 5.95471 12.9583 5.12365 14.1836 5.12365C15.6598 5.12365 16.8608 6.3248 16.8608 7.80087V8.6553C16.8608 8.96992 17.1158 9.22494 17.4304 9.22494C17.745 9.22494 18.0001 8.96995 18 8.6553V7.80083C18 5.69648 16.2879 3.98438 14.1835 3.98438Z" fill="#222222"/>
<path fill-rule="evenodd" clip-rule="evenodd" d="M1.25317 2.57927C1.25317 1.16588 2.40303 0.0159912 3.81645 0.0159912C5.22987 0.0159912 6.37973 1.16588 6.37973 2.57927C6.37973 3.99266 5.22987 5.14255 3.81645 5.14255C2.40306 5.14255 1.25317 3.99266 1.25317 2.57927ZM2.39241 2.57927C2.39241 3.36459 3.03113 4.00331 3.81645 4.00331C4.60177 4.00331 5.24049 3.36459 5.24049 2.57927C5.24049 1.79395 4.60177 1.15523 3.81645 1.15523C3.03113 1.15523 2.39241 1.79395 2.39241 2.57927Z" fill="#222222"/>
<path d="M7.50115 6.84272C7.06901 5.15968 5.55381 3.98438 3.81646 3.98438C1.71207 3.98434 0 5.69645 0 7.8008V8.65523C0 8.96985 0.254988 9.22487 0.569637 9.22487C0.88425 9.22487 1.13927 8.96988 1.13927 8.65523V7.8008C1.13927 6.32473 2.34021 5.12358 3.81649 5.12358C5.03357 5.12358 6.09497 5.94687 6.39763 7.12597C6.47585 7.43053 6.78516 7.61355 7.09105 7.53611C7.39575 7.45788 7.57937 7.14728 7.50115 6.84272Z" fill="#222222"/>
</svg>
