<?xml version="1.0" encoding="UTF-8" standalone="no"?>
<svg
   width="37"
   height="36"
   viewBox="0 0 37 36"
   fill="none"
   version="1.1"
   id="svg185"
   sodipodi:docname="icons8-share green.svg"
   inkscape:version="1.1.2 (0a00cf5339, 2022-02-04)"
   xmlns:inkscape="http://www.inkscape.org/namespaces/inkscape"
   xmlns:sodipodi="http://sodipodi.sourceforge.net/DTD/sodipodi-0.dtd"
   xmlns="http://www.w3.org/2000/svg"
   xmlns:svg="http://www.w3.org/2000/svg">
  <sodipodi:namedview
     id="namedview187"
     pagecolor="#ffffff"
     bordercolor="#666666"
     borderopacity="1.0"
     inkscape:pageshadow="2"
     inkscape:pageopacity="0.0"
     inkscape:pagecheckerboard="0"
     showgrid="false"
     inkscape:zoom="16.461372"
     inkscape:cx="2.7336726"
     inkscape:cy="19.22683"
     inkscape:window-width="1850"
     inkscape:window-height="1016"
     inkscape:window-x="0"
     inkscape:window-y="0"
     inkscape:window-maximized="1"
     inkscape:current-layer="svg185" />
  <g
     filter="url(#filter0_d_1_673)"
     id="g164">
    <circle
       cx="18.8203"
       cy="17"
       fill="#F4F4F4"
       id="circle162"
       r="12"
       style="fill:#b2d235;fill-opacity:1" />
  </g>
  <path
     opacity="0.501674"
     fill-rule="evenodd"
     clip-rule="evenodd"
     d="M20.3993 13.2105C20.3993 11.9953 21.3946 11 22.6098 11C23.825 11 24.8203 11.9953 24.8203 13.2105C24.8203 14.4258 23.825 15.4211 22.6098 15.4211C21.9209 15.4211 21.328 15.0819 20.9217 14.5835L17.1353 16.4776C17.1456 16.5184 17.1569 16.5588 17.1683 16.5991L17.1683 16.5991L17.1683 16.5991L17.1683 16.5991C17.2049 16.7291 17.2414 16.8589 17.2414 17C17.2414 17.1411 17.2049 17.2709 17.1683 17.4009L17.1683 17.4009L17.1683 17.4009L17.1683 17.4009C17.1569 17.4412 17.1456 17.4816 17.1353 17.5224L20.9217 19.4165C21.328 18.9181 21.9209 18.5789 22.6098 18.5789C23.825 18.5789 24.8203 19.5742 24.8203 20.7895C24.8203 22.0047 23.825 23 22.6098 23C21.3946 23 20.3993 22.0047 20.3993 20.7895C20.3993 20.6483 20.4358 20.5186 20.4723 20.3886L20.4723 20.3886C20.4837 20.3482 20.4951 20.3078 20.5053 20.2671L16.719 18.3729C16.3127 18.8714 15.7197 19.2105 15.0308 19.2105C13.8156 19.2105 12.8203 18.2152 12.8203 17C12.8203 15.7848 13.8156 14.7895 15.0308 14.7895C15.7197 14.7895 16.3127 15.1286 16.719 15.6271L20.5053 13.7329C20.4951 13.6922 20.4837 13.6518 20.4723 13.6114L20.4723 13.6114L20.4723 13.6114L20.4723 13.6114C20.4358 13.4814 20.3993 13.3517 20.3993 13.2105ZM23.8729 13.2105C23.8729 12.5073 23.313 11.9474 22.6098 11.9474C21.9066 11.9474 21.3466 12.5073 21.3466 13.2105C21.3466 13.9138 21.9066 14.4737 22.6098 14.4737C23.313 14.4737 23.8729 13.9138 23.8729 13.2105ZM15.0308 15.7368C15.7341 15.7368 16.294 16.2968 16.294 17C16.294 17.7032 15.7341 18.2632 15.0308 18.2632C14.3276 18.2632 13.7677 17.7032 13.7677 17C13.7677 16.2968 14.3276 15.7368 15.0308 15.7368ZM23.8729 20.7895C23.8729 20.0862 23.313 19.5263 22.6098 19.5263C21.9066 19.5263 21.3466 20.0862 21.3466 20.7895C21.3466 21.4927 21.9066 22.0526 22.6098 22.0526C23.313 22.0526 23.8729 21.4927 23.8729 20.7895Z"
     fill="#222222"
     id="path166"
     style="fill:#ffffff;fill-opacity:1" />
  <defs
     id="defs183">
    <filter
       id="filter0_d_1_673"
       x="0.820312"
       y="0"
       width="36"
       height="36"
       filterUnits="userSpaceOnUse"
       color-interpolation-filters="sRGB">
      <feFlood
         flood-opacity="0"
         result="BackgroundImageFix"
         id="feFlood168" />
      <feColorMatrix
         in="SourceAlpha"
         type="matrix"
         values="0 0 0 0 0 0 0 0 0 0 0 0 0 0 0 0 0 0 127 0"
         result="hardAlpha"
         id="feColorMatrix170" />
      <feOffset
         dy="1"
         id="feOffset172" />
      <feGaussianBlur
         stdDeviation="3"
         id="feGaussianBlur174" />
      <feColorMatrix
         type="matrix"
         values="0 0 0 0 0.133333 0 0 0 0 0.133333 0 0 0 0 0.133333 0 0 0 0.163762 0"
         id="feColorMatrix176" />
      <feBlend
         mode="normal"
         in2="BackgroundImageFix"
         result="effect1_dropShadow_1_673"
         id="feBlend178" />
      <feBlend
         mode="normal"
         in="SourceGraphic"
         in2="effect1_dropShadow_1_673"
         result="shape"
         id="feBlend180" />
    </filter>
  </defs>
</svg>
