<svg width="49" height="58" viewBox="0 0 49 58" fill="none" xmlns="http://www.w3.org/2000/svg">
<mask id="mask0_1_1528" style="mask-type:luminance" maskUnits="userSpaceOnUse" x="0" y="0" width="49" height="58">
<path fill-rule="evenodd" clip-rule="evenodd" d="M0.596313 0.431885H48.8058V57.7445H0.596313V0.431885Z" fill="white"/>
</mask>
<g mask="url(#mask0_1_1528)">
<path fill-rule="evenodd" clip-rule="evenodd" d="M48.8063 24.4823C48.8063 11.1998 38.0139 0.431641 24.7013 0.431641C11.3875 0.431641 0.596313 11.1998 0.596313 24.4823C0.596313 43.6724 24.7013 57.7445 24.7013 57.7445C24.7013 57.7445 48.8063 44.4394 48.8063 24.4823Z" fill="#ED184B"/>
</g>
<path fill-rule="evenodd" clip-rule="evenodd" d="M41.6528 23.9994C41.6528 14.6101 34.0309 7 24.6298 7C15.2274 7 7.60553 14.6101 7.60553 23.9994C7.60553 33.3887 15.2274 41 24.6298 41C34.0309 41 41.6528 33.3887 41.6528 23.9994Z" fill="white"/>
<path fill-rule="evenodd" clip-rule="evenodd" d="M24.6291 30.8803L31.4359 35L29.6352 27.2312L35.6444 22.0054L27.7228 21.3246L24.6291 14L21.5355 21.3246L13.6139 22.0054L19.6231 27.2312L17.8223 35L24.6291 30.8803Z" fill="#ED184B"/>
</svg>
